<?xml version="1.0" encoding="UTF-8" standalone="no"?>
<svg
   xmlns:dc="http://purl.org/dc/elements/1.1/"
   xmlns:cc="http://creativecommons.org/ns#"
   xmlns:rdf="http://www.w3.org/1999/02/22-rdf-syntax-ns#"
   xmlns:svg="http://www.w3.org/2000/svg"
   xmlns="http://www.w3.org/2000/svg"
   xmlns:sodipodi="http://sodipodi.sourceforge.net/DTD/sodipodi-0.dtd"
   xmlns:inkscape="http://www.inkscape.org/namespaces/inkscape"
   version="1.1"
   id="Layer_1"
   x="0px"
   y="0px"
   viewBox="0 0 1350.0934 321.25134"
   xml:space="preserve"
   sodipodi:docname="SpeakEZcolorBanner.svg"
   width="1350.0934"
   height="321.25134"
   inkscape:export-filename="C:\Users\h3tec\OneDrive\Documents\SpeakEZ\SpeakEZ-resize2.png"
   inkscape:export-xdpi="39.43"
   inkscape:export-ydpi="39.43"
   inkscape:version="1.0.1 (3bc2e813f5, 2020-09-07)"><metadata
   id="metadata881"><rdf:RDF><cc:Work
       rdf:about=""><dc:format>image/svg+xml</dc:format><dc:type
         rdf:resource="http://purl.org/dc/dcmitype/StillImage" /><dc:title></dc:title></cc:Work></rdf:RDF></metadata><defs
   id="defs879" /><sodipodi:namedview
   pagecolor="#ffffff"
   bordercolor="#666666"
   borderopacity="1"
   objecttolerance="10"
   gridtolerance="10"
   guidetolerance="10"
   inkscape:pageopacity="0"
   inkscape:pageshadow="2"
   inkscape:window-width="1902"
   inkscape:window-height="1066"
   id="namedview877"
   showgrid="false"
   inkscape:zoom="0.65782828"
   inkscape:cx="679.75393"
   inkscape:cy="185.62104"
   inkscape:window-x="2413"
   inkscape:window-y="294"
   inkscape:window-maximized="0"
   inkscape:current-layer="Layer_1"
   inkscape:document-rotation="0"
   scale-x="1"
   fit-margin-top="25"
   fit-margin-left="50"
   fit-margin-right="25"
   fit-margin-bottom="25" />
<style
   type="text/css"
   id="style858">
	.st0{fill:#F58220;}
	.st1{fill:#581D54;}
	.st2{fill:#009BAB;}
	.st3{fill:#FFFFFF;}
</style>
<path
   id="path1453"
   style="opacity:1;fill:#009d91;fill-opacity:1;stroke:none;stroke-width:4;stroke-linejoin:round;stroke-miterlimit:4;stroke-dasharray:none;stroke-dashoffset:74.47;stroke-opacity:1"
   d="M 296.94062,147.90593 A 123.47031,122.90592 0 0 1 173.47031,270.81186 123.47031,122.90592 0 0 1 50,147.90593 123.47031,122.90592 0 0 1 173.47031,25 123.47031,122.90592 0 0 1 296.94062,147.90593 Z" /><g
   id="g862"
   transform="translate(-225.96374,-148.48701)">
	
</g>
<g
   id="g866"
   transform="translate(-225.96374,-148.48701)">
	<path
   class="st1"
   d="m 464.1,293.8 c 0,-37.5 -30.5,-68.1 -68.1,-68.1 -37.5,0 -68.1,30.5 -68.1,68.1 0,37.5 30.5,68.1 68.1,68.1 h 64.6 c -1.4,-5.7 -2.6,-12.8 -2.6,-20 v -1.3 c 0,-6.4 0,-15.1 2.5,-24.9 2.5,-9.6 3.6,-14.9 3.6,-21.9 z m -36.3,36.3 c 0.7,4.3 -0.5,8.7 -3.3,12.1 -2.8,3.4 -7,5.3 -11.5,5.3 h -33.8 c -4.4,0 -8.6,-1.9 -11.5,-5.3 -2.8,-3.4 -4,-7.7 -3.3,-12.1 l 4.3,-25.2 c -7.8,-7.6 -12.1,-18.2 -11.7,-29.4 0.7,-19.8 16.8,-36.3 36.5,-37.5 10.9,-0.7 21.3,3.1 29.2,10.5 7.8,7.4 12.3,17.7 12.3,28.5 0,10.5 -4.3,20.6 -11.7,27.9 z"
   id="path864"
   style="fill:#0065b2;fill-opacity:1" />
</g>
<path
   class="st2"
   d="m 190.43626,128.51299 c 0,-5.6 -2.3,-10.8 -6.4,-14.70001 -4.1,-3.8 -9.5,-5.8 -15.1,-5.4 -10.2,0.6 -18.5,9.10001 -18.8,19.40001 -0.2,6.8 2.9,13.2 8.4,17.2 l 4.7,3.4 -5.3,31.9 h 24.6 l -5.3,-31.9 4.7,-3.4 c 5.3,-3.9 8.5,-10 8.5,-16.5 z"
   id="path868"
   style="fill:#f58220;fill-opacity:1;stroke:none;stroke-opacity:1" />
<path
   class="st3"
   d="m 196.93626,100.01298 c -7.9,-7.499998 -18.3,-11.199998 -29.2,-10.499998 -19.8,1.2 -35.8,17.699998 -36.5,37.500008 -0.4,11.1 3.9,21.7 11.7,29.4 l -4.3,25.2 c -0.7,4.3 0.5,8.7 3.3,12.1 2.8,3.4 7,5.3 11.5,5.3 h 33.8 c 4.4,0 8.6,-1.9 11.5,-5.3 2.8,-3.4 4,-7.7 3.3,-12.1 l -4.3,-25.3 c 7.4,-7.3 11.7,-17.3 11.7,-27.9 -0.1,-10.6 -4.6,-21.00001 -12.5,-28.40001 z m -15,44.90001 -4.7,3.4 5.3,31.9 h -24.6 l 5.3,-31.9 -4.7,-3.4 c -5.5,-4 -8.7,-10.4 -8.4,-17.2 0.4,-10.2 8.7,-18.70001 18.8,-19.40001 5.6,-0.3 11,1.6 15.1,5.4 4.1,3.90001 6.4,9.10001 6.4,14.70001 0,6.6 -3.2,12.7 -8.5,16.5 z"
   id="path870"
   style="fill:#eaeaea;fill-opacity:1" />
<g
   id="g874"
   transform="translate(-225.96374,-148.48701)"
   style="fill:#eaeaea;fill-opacity:1">
	<path
   class="st3"
   d="m 484.82131,380.7 -7.83845,-17.55718 c -0.1,-0.1 -3.46283,-8.52865 -1.98305,-21.24282 0.62935,-7.88228 2.47792,-16.34508 3.80019,-21.5 2.4,-9.4 4.2,-16.8 4.2,-26.6 0,-47.9 -39,-86.9 -86.9,-86.9 -47.9,0 -86.9,39 -86.9,86.9 0,47.9 39,86.9 86.9,86.9 h 88.72131 c 3.9,-3.4 -3.5,3.9 0,0 z M 458,340.5 v 1.3 c 0,7.2 1.2,14.3 2.6,20 H 396 c -37.5,0 -68.1,-30.5 -68.1,-68.1 0,-37.5 30.5,-68.1 68.1,-68.1 37.5,0 68.1,30.5 68.1,68.1 0,7 -1.1,12.4 -3.6,21.8 -2.6,9.9 -2.5,18.6 -2.5,25 z"
   id="path872"
   sodipodi:nodetypes="ccccssssccsscsssscs"
   style="fill:#eaeaea;fill-opacity:1" />
</g>
<path
   id="path862"
   style="opacity:1;fill:#009d91;fill-opacity:1;stroke:none;stroke-width:1;stroke-opacity:1"
   d="m 883.17104,59.152778 c -2.50459,0 -4.45151,1.946926 -4.45151,4.451511 V 249.50233 c 0,2.50458 1.94692,4.45151 4.45151,4.45151 h 23.65441 c 2.50459,0 4.45694,-1.94693 4.45694,-4.45151 v -34.2315 c 0,-1.11315 0.27383,-2.22521 1.10881,-3.06008 l 15.02859,-15.58299 c 1.94801,-1.94802 5.01026,-1.6719 6.67998,0.5544 l 37.01437,54.54321 c 0.83487,1.11315 2.22305,1.95127 3.61448,1.95127 h 27.27428 c 3.6178,0 5.5625,-3.89711 3.6145,-6.67998 l -50.92329,-73.74612 c -1.11315,-1.66972 -0.83703,-4.17431 0.55441,-5.56574 l 46.19458,-47.30883 c 2.7829,-2.50459 0.836,-7.23438 -3.06006,-7.23438 h -26.99169 c -1.11315,0 -2.22522,0.55657 -3.06008,1.39143 l -49.5373,52.87458 c -2.78287,2.78287 -7.51158,0.83052 -7.51158,-3.0655 V 63.604289 c 0,-2.504585 -1.95235,-4.451511 -4.45694,-4.451511 z m -512.60291,5.565745 c -37.0122,0 -63.72886,21.985776 -63.72886,53.988807 v 0.5544 c 0,34.22933 22.26515,46.19568 62.06022,55.65745 34.50762,7.79204 42.02029,15.02534 42.02029,28.38313 v 0.55983 c 0,13.91436 -12.8023,23.37721 -33.11727,23.37721 -20.03668,0 -36.17516,-6.68215 -52.03754,-18.6485 -3.89602,-3.06116 -9.46176,-2.2263 -12.52292,1.39144 l -7.79422,9.46285 c -3.33944,3.89602 -2.78395,10.01617 1.66864,13.07733 20.87154,16.14066 44.80642,23.93704 70.40884,23.93704 38.96021,0 66.51174,-20.87154 66.51174,-55.65745 v -0.55983 c 0,-30.88988 -20.03777,-45.08144 -59.55456,-54.54321 -35.89905,-8.34862 -44.52595,-14.74922 -44.52595,-29.22016 v -0.5544 c 0,-12.24464 11.13257,-21.985778 30.33439,-21.985778 14.47094,0 28.94079,5.008085 43.41172,14.191568 4.17431,2.78287 9.74006,1.39035 12.52293,-2.50567 l 6.95718,-10.01726 C 436.24392,91.154724 434.8514,85.312863 430.67709,82.529991 413.42328,70.841927 394.22255,64.718523 370.56813,64.718523 Z m 161.961,45.357567 c -18.08867,0 -31.166,7.51484 -40.90605,17.81146 -2.50459,2.78288 -6.95718,0.83487 -6.95718,-2.78287 v -7.78879 c 0,-2.22629 -1.94801,-4.1743 -4.17431,-4.1743 h -24.20882 c -2.2263,0 -4.17431,1.66538 -4.17431,3.89168 v 175.04375 c 0,2.2263 1.94801,4.17431 4.17431,4.17431 h 24.20882 c 2.2263,0 4.17431,-1.94801 4.17431,-4.17431 v -49.53187 c 0,-3.61774 4.45259,-5.28746 6.95718,-2.78287 9.46176,9.46176 22.53909,16.69723 40.90605,16.69723 33.39447,0 65.3975,-26.16226 65.3975,-72.91451 v -0.5544 c 0,-46.75226 -32.28132,-72.91451 -65.3975,-72.91451 z m 139.15447,0.0543 c -37.68563,0.2474 -69.85987,32.05521 -69.85987,71.74593 v 1.94584 c 0,43.41281 31.44646,72.91451 72.35468,72.91451 22.26298,0 38.95913,-7.51701 51.76034,-20.03994 3.33945,-3.33945 3.06225,-8.62473 -0.27717,-11.68589 l -6.67998,-5.84295 c -3.61773,-3.06116 -8.62256,-3.06007 -12.2403,-0.27717 -9.46176,7.51375 -19.20616,11.40869 -32.28566,11.40869 -20.59325,0 -36.45562,-12.24572 -40.35164,-34.5087 0,-0.55658 0.55766,-1.11424 1.11423,-1.11424 h 93.50342 c 5.00917,0 9.18565,-3.89385 9.18565,-8.90302 0,-34.7859 -16.69832,-65.67578 -49.8145,-73.74611 -5.53096,-1.32187 -11.02549,-1.93226 -16.40918,-1.89692 z m 133.84964,0.78277 c -20.59325,0 -35.06744,3.61773 -49.26009,9.74005 -2.2263,0.83486 -3.34053,3.33945 -2.50567,5.56575 l 5.56574,16.97443 c 0.83486,2.50459 3.34379,3.61774 5.84837,2.78287 11.13149,-4.1743 21.98035,-6.95718 35.89472,-6.95718 22.54126,0 34.7859,10.57492 34.7859,30.6116 v 3.3427 c -10.8532,-3.33945 -22.26189,-5.84837 -37.84598,-5.84837 -34.50761,0 -58.16311,15.02968 -58.16311,45.36299 v 0.5544 c 0,28.3853 23.38046,43.41281 50.37433,43.13452 16.69723,0 29.2169,-5.28529 38.40038,-13.07733 3.06116,-2.50458 7.51701,-0.55874 7.51701,3.33728 v 2.22847 c 0,2.50458 1.94692,4.45151 4.45151,4.45151 h 22.54018 c 2.50458,0 4.45151,-1.94693 4.45151,-4.45151 v -78.75746 c 0,-18.36696 -5.00917,-33.39338 -15.3058,-43.41172 -10.01834,-10.01834 -25.59917,-15.583 -46.749,-15.583 z m -135.25193,25.60025 c 20.87154,0 33.11835,15.58517 35.62293,35.90014 0,0.55657 -0.55766,1.11423 -1.11423,1.11423 H 635.2182 c -0.83486,0 -1.11423,-0.55766 -1.11423,-1.11423 3.06116,-21.14983 16.97552,-35.90014 36.17734,-35.90014 z m -145.81817,1.39144 c 21.98469,0 40.35165,17.81364 40.35165,45.08579 v 0.5544 c 0,27.82872 -18.08867,45.08579 -40.35165,45.08579 -21.7064,0 -40.91148,-18.09193 -40.91148,-45.08579 v -0.5544 c 0,-26.99387 19.20508,-45.08579 40.91148,-45.08579 z m 279.67867,50.0917 c 11.40977,0 21.14548,1.95235 28.93753,4.45694 1.66972,0.55657 3.0655,2.22629 3.0655,4.17431 v 6.39735 c 0,17.81038 -16.14066,30.0561 -37.56878,30.33439 -15.58408,0 -27.55152,-7.78987 -27.55152,-21.42595 v -0.55983 c 0,-14.47093 12.24572,-23.37721 33.11727,-23.37721 z"
   sodipodi:nodetypes="sssssssccccssccccssccssssssscsssccccssscsssccccsscsssssssssssssssssssccccscssscsssccccsscsssccsssssscsscsscssssssssscsscsss" /><path
   id="path1482"
   style="opacity:0.951613;fill:#f58220;fill-opacity:1;stroke:none;stroke-width:1;stroke-opacity:1"
   d="m 1183.444,66.941565 c -4.4526,0 -7.7887,3.619904 -7.7887,7.794213 v 13.637159 c 0,4.452596 3.6144,7.788787 7.7887,7.788787 h 82.372 c 6.4006,0 10.0227,7.796386 5.8484,12.805556 l -97.6832,118.27207 c -1.3914,1.39144 -1.9458,3.0579 -1.9458,5.00591 v 13.63716 c 0,4.4526 3.6199,7.79422 7.7942,7.79422 h 137.4695 c 4.4526,0 7.7942,-3.61991 7.7942,-7.79422 v -13.63716 c 0,-4.45259 -3.6199,-7.78878 -7.7942,-7.78878 h -85.9864 c -6.4006,0 -10.0227,-7.79639 -5.8484,-12.80556 l 97.9604,-118.272068 c 1.1131,-1.391436 1.6686,-3.336191 1.6686,-5.005915 V 74.735778 c 0,-4.452596 -3.6199,-7.794213 -7.7942,-7.794213 z m -152.7807,0.282628 c -5.0092,0 -9.1813,3.89168 -8.9031,8.065989 V 243.65396 c 0,4.73088 3.8939,8.90844 8.9031,8.90844 h 121.6147 c 4.7309,0 8.9031,-3.89927 8.9031,-8.90844 v -11.13149 c 0,-4.73089 -3.8939,-8.90302 -8.9031,-8.90302 h -88.7747 c -4.7308,0 -8.903,-3.89385 -8.903,-8.90302 v -32.00304 c 0,-4.73088 3.8939,-8.90844 8.903,-8.90844 h 75.4148 c 4.7309,0 8.9084,-3.89385 8.9084,-8.90302 v -11.13149 c 0,-4.73089 -3.8992,-8.90845 -8.9084,-8.90845 h -75.4148 c -4.7308,0 -8.903,-3.89385 -8.903,-8.90302 v -30.8888 c 0,-4.73088 3.8939,-8.908446 8.903,-8.908446 h 87.3833 c 4.7309,0 8.903,-3.893851 8.903,-8.903021 V 76.127214 c 0,-4.730883 -3.8938,-8.903021 -8.903,-8.903021 z" /><g
   id="g882"
   transform="matrix(2.7828723,0,0,2.7828723,-20.37492,-23.408081)"
   style="stroke-width:0.359341" /></svg>
