<?xml version="1.0" encoding="UTF-8" standalone="no"?>
<svg
   xmlns:dc="http://purl.org/dc/elements/1.1/"
   xmlns:cc="http://creativecommons.org/ns#"
   xmlns:rdf="http://www.w3.org/1999/02/22-rdf-syntax-ns#"
   xmlns:svg="http://www.w3.org/2000/svg"
   xmlns="http://www.w3.org/2000/svg"
   xmlns:sodipodi="http://sodipodi.sourceforge.net/DTD/sodipodi-0.dtd"
   xmlns:inkscape="http://www.inkscape.org/namespaces/inkscape"
   version="1.1"
   id="Layer_1"
   x="0px"
   y="0px"
   viewBox="0 0 279.99999 59.999996"
   xml:space="preserve"
   sodipodi:docname="SpeakEZcolorBannerSmall.svg"
   width="280"
   height="60"
   inkscape:export-filename="C:\Users\h3tec\OneDrive\Documents\SpeakEZ\SpeakEZcolorBannerSmall.png"
   inkscape:export-xdpi="96"
   inkscape:export-ydpi="96"
   inkscape:version="1.0.1 (3bc2e813f5, 2020-09-07)"><metadata
   id="metadata881"><rdf:RDF><cc:Work
       rdf:about=""><dc:format>image/svg+xml</dc:format><dc:type
         rdf:resource="http://purl.org/dc/dcmitype/StillImage" /><dc:title /></cc:Work></rdf:RDF></metadata><defs
   id="defs879" /><sodipodi:namedview
   pagecolor="#ffffff"
   bordercolor="#666666"
   borderopacity="1"
   objecttolerance="10"
   gridtolerance="10"
   guidetolerance="10"
   inkscape:pageopacity="0"
   inkscape:pageshadow="2"
   inkscape:window-width="1885"
   inkscape:window-height="1366"
   id="namedview877"
   showgrid="false"
   inkscape:zoom="3.7212387"
   inkscape:cx="144.30083"
   inkscape:cy="28.833364"
   inkscape:window-x="110"
   inkscape:window-y="602"
   inkscape:window-maximized="0"
   inkscape:current-layer="Layer_1"
   inkscape:document-rotation="0"
   units="px"
   height="73mm" />
<style
   type="text/css"
   id="style858">
	.st0{fill:#F58220;}
	.st1{fill:#581D54;}
	.st2{fill:#009BAB;}
	.st3{fill:#FFFFFF;}
</style>
<path
   id="path1453"
   style="opacity:1;fill:#009976;fill-opacity:1;stroke:none;stroke-width:4;stroke-linejoin:round;stroke-miterlimit:4;stroke-dasharray:none;stroke-dashoffset:74.47;stroke-opacity:1"
   d="M 54.400537,29.800555 A 26.269534,26.149455 0 0 1 28.131003,55.950012 26.269534,26.149455 0 0 1 1.8614697,29.800555 26.269534,26.149455 0 0 1 28.131003,3.6510991 26.269534,26.149455 0 0 1 54.400537,29.800555 Z" /><g
   id="g862"
   transform="matrix(0.21275991,0,0,0.21275991,-56.852553,-33.259982)"
   style="stroke-width:4.70013">
	
</g>
<g
   id="g866"
   transform="matrix(0.21275991,0,0,0.21275991,-56.852553,-33.259982)"
   style="stroke-width:4.70013">
	<path
   class="st1"
   d="m 464.1,293.8 c 0,-37.5 -30.5,-68.1 -68.1,-68.1 -37.5,0 -68.1,30.5 -68.1,68.1 0,37.5 30.5,68.1 68.1,68.1 h 64.6 c -1.4,-5.7 -2.6,-12.8 -2.6,-20 v -1.3 c 0,-6.4 0,-15.1 2.5,-24.9 2.5,-9.6 3.6,-14.9 3.6,-21.9 z m -36.3,36.3 c 0.7,4.3 -0.5,8.7 -3.3,12.1 -2.8,3.4 -7,5.3 -11.5,5.3 h -33.8 c -4.4,0 -8.6,-1.9 -11.5,-5.3 -2.8,-3.4 -4,-7.7 -3.3,-12.1 l 4.3,-25.2 c -7.8,-7.6 -12.1,-18.2 -11.7,-29.4 0.7,-19.8 16.8,-36.3 36.5,-37.5 10.9,-0.7 21.3,3.1 29.2,10.5 7.8,7.4 12.3,17.7 12.3,28.5 0,10.5 -4.3,20.6 -11.7,27.9 z"
   id="path864"
   style="fill:#260190;fill-opacity:1;stroke-width:4.70013" />
</g>
<path
   class="st2"
   d="m 31.740678,25.674515 c 0,-1.191456 -0.489348,-2.297807 -1.361664,-3.127573 -0.872316,-0.808488 -2.021219,-1.234008 -3.212675,-1.148903 -2.170151,0.127656 -3.936059,1.936117 -3.999886,4.127544 -0.04256,1.446768 0.617003,2.808431 1.787183,3.659471 l 0.999972,0.723384 -1.127628,6.787042 h 5.233894 l -1.127628,-6.787042 0.999972,-0.723384 c 1.127628,-0.829765 1.80846,-2.1276 1.80846,-3.510539 z"
   id="path868"
   style="fill:#ed5b00;fill-opacity:1;stroke:none;stroke-width:0.4;stroke-opacity:1;stroke-miterlimit:4;stroke-dasharray:none" />
<path
   class="st3"
   d="m 33.123617,19.610855 c -1.680802,-1.595698 -3.893507,-2.38291 -6.21259,-2.233979 -4.212646,0.255312 -7.616804,3.765851 -7.765737,7.978499 -0.0851,2.361634 0.829762,4.61689 2.489292,6.255141 l -0.914869,5.36155 c -0.148931,0.914868 0.106382,1.851012 0.702108,2.574397 0.595728,0.723383 1.48932,1.127626 2.446739,1.127626 h 7.191286 c 0.936143,0 1.829735,-0.404243 2.446739,-1.127626 0.595727,-0.723385 0.851039,-1.638253 0.702108,-2.574397 l -0.914869,-5.382825 c 1.574424,-1.553147 2.489292,-3.680747 2.489292,-5.936002 -0.02128,-2.255256 -0.978695,-4.467961 -2.659499,-6.042384 z m -3.191399,9.552922 -0.999972,0.723384 1.127628,6.787042 H 24.82598 l 1.127628,-6.787042 -0.999972,-0.723384 c -1.17018,-0.851039 -1.851012,-2.212703 -1.787183,-3.659471 0.0851,-2.17015 1.851011,-3.978611 3.999886,-4.127543 1.191456,-0.06382 2.340359,0.340416 3.212675,1.148904 0.872316,0.829765 1.361664,1.936116 1.361664,3.127572 0,1.404215 -0.680832,2.70205 -1.80846,3.510538 z"
   id="path870"
   style="fill:#ffffff;fill-opacity:1;stroke-width:1" />
<g
   id="g874"
   transform="matrix(0.21275991,0,0,0.21275991,-56.852553,-33.259982)"
   style="fill:#eaeaea;fill-opacity:1;stroke-width:4.70013">
	<path
   class="st3"
   d="m 484.82131,380.7 -7.83845,-17.55718 c -0.1,-0.1 -3.46283,-8.52865 -1.98305,-21.24282 0.62935,-7.88228 2.47792,-16.34508 3.80019,-21.5 2.4,-9.4 4.2,-16.8 4.2,-26.6 0,-47.9 -39,-86.9 -86.9,-86.9 -47.9,0 -86.9,39 -86.9,86.9 0,47.9 39,86.9 86.9,86.9 h 88.72131 c 3.9,-3.4 -3.5,3.9 0,0 z M 458,340.5 v 1.3 c 0,7.2 1.2,14.3 2.6,20 H 396 c -37.5,0 -68.1,-30.5 -68.1,-68.1 0,-37.5 30.5,-68.1 68.1,-68.1 37.5,0 68.1,30.5 68.1,68.1 0,7 -1.1,12.4 -3.6,21.8 -2.6,9.9 -2.5,18.6 -2.5,25 z"
   id="path872"
   sodipodi:nodetypes="ccccssssccsscsssscs"
   style="fill:#eaeaea;fill-opacity:1;stroke-width:4.70013" />
</g>
<g
   id="g876"
   transform="matrix(0.59208366,0,0,0.59208366,-98.327514,-151.61053)"
   style="stroke-width:1.68895"><path
     id="path862"
     style="opacity:0.903226;fill:#009976;fill-opacity:1;stroke:none;stroke-width:1.68895;stroke-opacity:1"
     d="m 469.69922,267.40039 c -0.9,0 -1.59961,0.69961 -1.59961,1.59961 v 66.80078 c 0,0.9 0.69961,1.59961 1.59961,1.59961 h 8.5 c 0.9,0 1.60156,-0.69961 1.60156,-1.59961 V 323.5 c 0,-0.4 0.0984,-0.79961 0.39844,-1.09961 l 5.40039,-5.59961 C 486.29961,316.10078 487.4,316.2 488,317 l 13.30078,19.59961 c 0.3,0.4 0.79883,0.70117 1.29883,0.70117 h 9.80078 c 1.3,0 1.99883,-1.40039 1.29883,-2.40039 l -18.29883,-26.5 c -0.4,-0.6 -0.30078,-1.5 0.19922,-2 l 16.59961,-17 c 1,-0.9 0.30039,-2.59961 -1.09961,-2.59961 h -9.69922 c -0.4,0 -0.79961,0.2 -1.09961,0.5 l -17.80078,19 c -1,1 -2.69922,0.29844 -2.69922,-1.10156 V 269 c 0,-0.9 -0.70156,-1.59961 -1.60156,-1.59961 z m -184.19922,2 c -13.3,0 -22.90039,7.90039 -22.90039,19.40039 V 289 c 0,12.3 8.00078,16.6 22.30078,20 12.4,2.8 15.09961,5.39922 15.09961,10.19922 v 0.20117 c 0,5 -4.60039,8.40039 -11.90039,8.40039 -7.2,0 -12.99922,-2.40117 -18.69922,-6.70117 -1.4,-1.1 -3.4,-0.8 -4.5,0.5 L 262.09961,325 c -1.2,1.4 -1.00039,3.59922 0.59961,4.69922 7.5,5.8 16.10078,8.60156 25.30078,8.60156 14,0 23.90039,-7.5 23.90039,-20 v -0.20117 C 311.90039,306.99961 304.7,301.9 290.5,298.5 c -12.9,-3 -16,-5.3 -16,-10.5 v -0.19922 c 0,-4.4 4.00039,-7.90039 10.90039,-7.90039 5.2,0 10.39961,1.79961 15.59961,5.09961 1.5,1 3.5,0.49961 4.5,-0.90039 L 308,280.5 c 1.1,-1.6 0.59961,-3.69922 -0.90039,-4.69922 -6.2,-4.2 -13.09961,-6.40039 -21.59961,-6.40039 z m 58.19922,16.29883 c -6.5,0 -11.19922,2.70039 -14.69922,6.40039 -0.9,1 -2.5,0.3 -2.5,-1 v -2.79883 c 0,-0.8 -0.7,-1.5 -1.5,-1.5 h -8.69922 c -0.8,0 -1.5,0.59844 -1.5,1.39844 v 62.90039 c 0,0.8 0.7,1.5 1.5,1.5 H 325 c 0.8,0 1.5,-0.7 1.5,-1.5 v -17.79883 c 0,-1.3 1.6,-1.9 2.5,-1 3.4,3.4 8.09922,6 14.69922,6 12,0 23.5,-9.40117 23.5,-26.20117 v -0.19922 c 0,-16.8 -11.6,-26.20117 -23.5,-26.20117 z m 50.0039,0.0195 c -13.54199,0.0889 -25.10351,11.51875 -25.10351,25.78125 v 0.69922 c 0,15.6 11.3,26.20117 26,26.20117 8,0 13.99961,-2.70117 18.59961,-7.20117 1.2,-1.2 1.10039,-3.09922 -0.0996,-4.19922 l -2.40039,-2.09961 c -1.3,-1.1 -3.09844,-1.09961 -4.39844,-0.0996 -3.4,2.7 -6.90156,4.09961 -11.60156,4.09961 -7.4,0 -13.1,-4.40039 -14.5,-12.40039 0,-0.2 0.20039,-0.40039 0.40039,-0.40039 h 33.59961 c 1.8,0 3.30078,-1.39922 3.30078,-3.19922 0,-12.5 -6.00039,-23.6 -17.90039,-26.5 -1.9875,-0.475 -3.96191,-0.69434 -5.89649,-0.68164 z M 441.80078,286 c -7.4,0 -12.60117,1.3 -17.70117,3.5 -0.8,0.3 -1.20039,1.2 -0.90039,2 l 2,6.09961 c 0.3,0.9 1.20156,1.3 2.10156,1 4,-1.5 7.89844,-2.5 12.89844,-2.5 8.1,0 12.5,3.8 12.5,11 v 1.20117 c -3.9,-1.2 -7.99961,-2.10156 -13.59961,-2.10156 -12.4,0 -20.90039,5.40078 -20.90039,16.30078 v 0.19922 c 0,10.2 8.40156,15.6 18.10156,15.5 6,0 10.49883,-1.89922 13.79883,-4.69922 1.1,-0.9 2.70117,-0.20078 2.70117,1.19922 V 335.5 c 0,0.9 0.69961,1.59961 1.59961,1.59961 H 462.5 c 0.9,0 1.59961,-0.69961 1.59961,-1.59961 v -28.30078 c 0,-6.6 -1.8,-11.99961 -5.5,-15.59961 -3.6,-3.6 -9.19883,-5.59961 -16.79883,-5.59961 z m -48.60156,9.19922 c 7.5,0 11.90078,5.60039 12.80078,12.90039 0,0.2 -0.20039,0.40039 -0.40039,0.40039 h -25 c -0.3,0 -0.40039,-0.20039 -0.40039,-0.40039 1.1,-7.6 6.1,-12.90039 13,-12.90039 z m -52.39844,0.5 c 7.9,0 14.5,6.40117 14.5,16.20117 v 0.19922 c 0,10 -6.5,16.20117 -14.5,16.20117 -7.8,0 -14.70117,-6.50117 -14.70117,-16.20117 v -0.19922 c 0,-9.7 6.90117,-16.20117 14.70117,-16.20117 z m 100.5,18 c 4.1,0 7.59844,0.70156 10.39844,1.60156 0.6,0.2 1.10156,0.8 1.10156,1.5 v 2.29883 c 0,6.4 -5.8,10.80039 -13.5,10.90039 -5.6,0 -9.90039,-2.79922 -9.90039,-7.69922 v -0.20117 c 0,-5.2 4.40039,-8.40039 11.90039,-8.40039 z"
     sodipodi:nodetypes="sssssssccccssccccssccssssssscsssccccssscsssccccsscsssssssssssssssssssccccscssscsssccccsscsssccsssssscsscsscssssssssscsscsss" /><path
     id="path1482"
     style="opacity:0.951613;fill:#ed5b00;fill-opacity:1;stroke:none;stroke-width:0.341168;stroke-miterlimit:4;stroke-dasharray:none;stroke-opacity:1"
     d="m 577.59961,270.19922 c -1.6,0 -2.79883,1.30078 -2.79883,2.80078 v 4.90039 c 0,1.6 1.29883,2.79883 2.79883,2.79883 h 29.59961 c 2.3,0 3.60156,2.80156 2.10156,4.60156 l -35.10156,42.5 c -0.5,0.5 -0.69922,1.09883 -0.69922,1.79883 V 334.5 c 0,1.6 1.30078,2.80078 2.80078,2.80078 h 49.39844 c 1.6,0 2.80078,-1.30078 2.80078,-2.80078 v -4.90039 c 0,-1.6 -1.30078,-2.79883 -2.80078,-2.79883 h -30.89844 c -2.3,0 -3.60156,-2.80156 -2.10156,-4.60156 l 35.20117,-42.5 c 0.4,-0.5 0.59961,-1.19883 0.59961,-1.79883 V 273 c 0,-1.6 -1.30078,-2.80078 -2.80078,-2.80078 z m -54.90039,0.10156 c -1.8,0 -3.29922,1.39844 -3.19922,2.89844 v 60.5 c 0,1.7 1.39922,3.20117 3.19922,3.20117 h 43.70117 c 1.7,0 3.19922,-1.40117 3.19922,-3.20117 v -4 c 0,-1.7 -1.39922,-3.19922 -3.19922,-3.19922 H 534.5 c -1.7,0 -3.19922,-1.39922 -3.19922,-3.19922 v -11.5 c 0,-1.7 1.39922,-3.20117 3.19922,-3.20117 h 27.09961 c 1.7,0 3.20117,-1.39922 3.20117,-3.19922 v -4 c 0,-1.7 -1.40117,-3.20117 -3.20117,-3.20117 H 534.5 c -1.7,0 -3.19922,-1.39922 -3.19922,-3.19922 v -11.09961 c 0,-1.7 1.39922,-3.20117 3.19922,-3.20117 h 31.40039 c 1.7,0 3.19922,-1.39922 3.19922,-3.19922 v -4 c 0,-1.7 -1.39922,-3.19922 -3.19922,-3.19922 z" /></g><g
   id="g882"
   transform="matrix(0.59208366,0,0,0.59208366,-13.111492,-6.6482005)"
   style="stroke-width:1.68895" /></svg>
