<?xml version="1.0" encoding="UTF-8" standalone="no"?>
<svg
   xmlns:dc="http://purl.org/dc/elements/1.1/"
   xmlns:cc="http://creativecommons.org/ns#"
   xmlns:rdf="http://www.w3.org/1999/02/22-rdf-syntax-ns#"
   xmlns:svg="http://www.w3.org/2000/svg"
   xmlns="http://www.w3.org/2000/svg"
   xmlns:sodipodi="http://sodipodi.sourceforge.net/DTD/sodipodi-0.dtd"
   xmlns:inkscape="http://www.inkscape.org/namespaces/inkscape"
   version="1.1"
   id="Layer_1"
   x="0px"
   y="0px"
   viewBox="0 0 98.000001 95.173081"
   xml:space="preserve"
   sodipodi:docname="SpeakEZcolorLogo_small.svg"
   width="98"
   height="95.17308"
   inkscape:export-filename="C:\Users\h3tec\OneDrive\Documents\SpeakEZ\SpeakEZcolorLogo_small.png"
   inkscape:export-xdpi="96"
   inkscape:export-ydpi="96"
   inkscape:version="1.0.1 (3bc2e813f5, 2020-09-07)"><metadata
   id="metadata881"><rdf:RDF><cc:Work
       rdf:about=""><dc:format>image/svg+xml</dc:format><dc:type
         rdf:resource="http://purl.org/dc/dcmitype/StillImage" /><dc:title></dc:title></cc:Work></rdf:RDF></metadata><defs
   id="defs879" /><sodipodi:namedview
   pagecolor="#ffffff"
   bordercolor="#666666"
   borderopacity="1"
   objecttolerance="10"
   gridtolerance="10"
   guidetolerance="10"
   inkscape:pageopacity="0"
   inkscape:pageshadow="2"
   inkscape:window-width="1504"
   inkscape:window-height="1080"
   id="namedview877"
   showgrid="false"
   inkscape:zoom="5.2626264"
   inkscape:cx="43.695091"
   inkscape:cy="18.716079"
   inkscape:window-x="2085"
   inkscape:window-y="303"
   inkscape:window-maximized="0"
   inkscape:current-layer="Layer_1"
   inkscape:document-rotation="0"
   fit-margin-top="2"
   fit-margin-left="2"
   fit-margin-right="2"
   fit-margin-bottom="2" />
<style
   type="text/css"
   id="style858">
	.st0{fill:#F58220;}
	.st1{fill:#581D54;}
	.st2{fill:#009BAB;}
	.st3{fill:#FFFFFF;}
</style>
<g
   id="g862"
   transform="matrix(1.9911076,0,0,1.9191021,-548.23361,-332.07944)"
   style="stroke-width:0.511568">
	
</g>



<g
   id="g846"
   transform="matrix(0.19327057,0,0,0.19327057,2,2)"
   style="stroke-width:5.17409"><path
     id="path1453"
     style="opacity:1;fill:#009d91;fill-opacity:1;stroke:none;stroke-width:20.6964;stroke-linejoin:round;stroke-miterlimit:4;stroke-dasharray:none;stroke-dashoffset:74.47;stroke-opacity:1"
     d="M 486.3648,235.86901 A 243.18242,235.86902 0 0 1 243.18239,471.73806 243.18242,235.86902 0 0 1 0,235.86901 243.18242,235.86902 0 0 1 243.18239,0 243.18242,235.86902 0 0 1 486.3648,235.86901 Z" /><g
     id="g866"
     transform="matrix(1.9911076,0,0,1.9191021,-549.47353,-332.93932)"
     style="stroke-width:2.6469">
	<path
   class="st1"
   d="m 464.1,293.8 c 0,-37.5 -30.5,-68.1 -68.1,-68.1 -37.5,0 -68.1,30.5 -68.1,68.1 0,37.5 30.5,68.1 68.1,68.1 h 64.6 c -1.4,-5.7 -2.6,-12.8 -2.6,-20 v -1.3 c 0,-6.4 0,-15.1 2.5,-24.9 2.5,-9.6 3.6,-14.9 3.6,-21.9 z m -36.3,36.3 c 0.7,4.3 -0.5,8.7 -3.3,12.1 -2.8,3.4 -7,5.3 -11.5,5.3 h -33.8 c -4.4,0 -8.6,-1.9 -11.5,-5.3 -2.8,-3.4 -4,-7.7 -3.3,-12.1 l 4.3,-25.2 c -7.8,-7.6 -12.1,-18.2 -11.7,-29.4 0.7,-19.8 16.8,-36.3 36.5,-37.5 10.9,-0.7 21.3,3.1 29.2,10.5 7.8,7.4 12.3,17.7 12.3,28.5 0,10.5 -4.3,20.6 -11.7,27.9 z"
   id="path864"
   style="fill:#0065b2;fill-opacity:1;stroke-width:2.6469" />
</g><path
     class="st2"
     d="m 279.6237,198.65199 c 0,-10.74697 -4.57955,-20.7263 -12.74309,-28.2108 -8.16355,-7.2926 -18.91553,-11.13079 -30.06573,-10.36316 -20.3093,1.15147 -36.83548,17.46383 -37.43281,37.23058 -0.39822,13.0499 5.7742,25.33215 16.72529,33.00856 l 9.3582,6.52494 -10.55287,61.21936 h 48.98126 l -10.55287,-61.21936 9.3582,-6.52494 c 10.55287,-7.4845 16.92442,-19.19102 16.92442,-31.66518 z"
     id="path868"
     style="fill:#f58220;fill-opacity:1;stroke:none;stroke-width:5.17408;stroke-opacity:1" /><path
     class="st3"
     d="m 292.56589,143.95757 c -15.72975,-14.39326 -36.43726,-21.49394 -58.14034,-20.15057 -39.42393,2.30292 -71.28163,33.96811 -72.67542,71.96634 -0.79644,21.30202 7.76532,41.6445 23.29596,56.42159 l -8.56177,48.36138 c -1.39377,8.25214 0.99556,16.69618 6.57066,23.22114 5.5751,6.52494 13.93775,10.17123 22.89773,10.17123 h 67.29944 c 8.76088,0 17.12353,-3.64629 22.89773,-10.17123 5.57511,-6.52496 7.96444,-14.77709 6.57066,-23.22114 l -8.56176,-48.55328 c 14.7342,-14.00946 23.29596,-33.20048 23.29596,-53.54296 -0.19911,-20.34248 -9.15909,-40.30114 -24.88885,-54.5025 z m -29.86661,86.16769 -9.3582,6.52495 10.55287,61.21936 h -48.98126 l 10.55287,-61.21936 -9.3582,-6.52495 c -10.95109,-7.67641 -17.32264,-19.95867 -16.72529,-33.00856 0.79644,-19.57484 17.32262,-35.8872 37.43281,-37.23057 11.1502,-0.57573 21.90218,3.07056 30.06573,10.36314 8.16354,7.4845 12.74309,17.46384 12.74309,28.2108 0,12.66608 -6.37155,24.3726 -16.92442,31.66519 z"
     id="path870"
     style="fill:#eaeaea;fill-opacity:1;stroke-width:5.17408" /><g
     id="g874"
     transform="matrix(1.9911076,0,0,1.9191021,-549.47353,-332.93932)"
     style="fill:#eaeaea;fill-opacity:1;stroke-width:2.6469">
	<path
   class="st3"
   d="m 484.82131,380.7 -7.83845,-17.55718 c -0.1,-0.1 -3.46283,-8.52865 -1.98305,-21.24282 0.62935,-7.88228 2.47792,-16.34508 3.80019,-21.5 2.4,-9.4 4.2,-16.8 4.2,-26.6 0,-47.9 -39,-86.9 -86.9,-86.9 -47.9,0 -86.9,39 -86.9,86.9 0,47.9 39,86.9 86.9,86.9 h 88.72131 c 3.9,-3.4 -3.5,3.9 0,0 z M 458,340.5 v 1.3 c 0,7.2 1.2,14.3 2.6,20 H 396 c -37.5,0 -68.1,-30.5 -68.1,-68.1 0,-37.5 30.5,-68.1 68.1,-68.1 37.5,0 68.1,30.5 68.1,68.1 0,7 -1.1,12.4 -3.6,21.8 -2.6,9.9 -2.5,18.6 -2.5,25 z"
   id="path872"
   sodipodi:nodetypes="ccccssssccsscsssscs"
   style="fill:#eaeaea;fill-opacity:1;stroke-width:2.6469" />
</g></g>
<g
   id="g882"
   transform="matrix(5.5409983,0,0,5.3406162,-138.88411,-92.040171)"
   style="stroke-width:0.183827" /></svg>
